<svg xmlns="http://www.w3.org/2000/svg" xmlns:xlink="http://www.w3.org/1999/xlink" width="150" zoomAndPan="magnify" viewBox="0 0 112.5 112.499997" height="150" preserveAspectRatio="xMidYMid meet" version="1.0"><defs><g/><clipPath id="709d9bddaa"><path d="M 0 0 L 112.003906 0 L 112.003906 112.003906 L 0 112.003906 Z M 0 0 " clip-rule="nonzero"/></clipPath><clipPath id="eec6c8a056"><path d="M 0 0 L 112.003906 0 L 112.003906 112.003906 L 0 112.003906 Z M 0 0 " clip-rule="nonzero"/></clipPath><clipPath id="694b15b803"><rect x="0" width="113" y="0" height="113"/></clipPath><clipPath id="b41f71311e"><path d="M 0 2 L 112.003906 2 L 112.003906 109 L 0 109 Z M 0 2 " clip-rule="nonzero"/></clipPath><clipPath id="d244b0d211"><rect x="0" width="113" y="0" height="107"/></clipPath></defs><g clip-path="url(#709d9bddaa)"><path fill="#ffffff" d="M 0 0 L 112.003906 0 L 112.003906 112.003906 L 0 112.003906 Z M 0 0 " fill-opacity="1" fill-rule="nonzero"/><path fill="#ffffff" d="M 0 0 L 112.003906 0 L 112.003906 112.003906 L 0 112.003906 Z M 0 0 " fill-opacity="1" fill-rule="nonzero"/><g transform="matrix(1, 0, 0, 1, 0, -0.000000000000000624)"><g clip-path="url(#694b15b803)"><g clip-path="url(#eec6c8a056)"><path fill="#333f63" d="M 0 0 L 112.003906 0 L 112.003906 112.003906 L 0 112.003906 Z M 0 0 " fill-opacity="1" fill-rule="nonzero"/></g></g></g></g><g clip-path="url(#b41f71311e)"><g transform="matrix(1, 0, 0, 1, 0, 2)"><g clip-path="url(#d244b0d211)"><g fill="#b4a7d6" fill-opacity="1"><g transform="translate(0.0000015, 84.07722)"><g><path d="M 19.15625 -47.515625 L 0.34375 -47.515625 L 0.34375 -61.25 L 55.21875 -61.25 L 55.21875 -47.515625 L 36.484375 -47.515625 L 36.484375 0 L 19.15625 0 Z M 19.15625 -47.515625 "/></g></g></g><g fill="#b4a7d6" fill-opacity="1"><g transform="translate(55.383781, 84.07722)"><g><path d="M 27.65625 1.21875 C 22.695312 1.21875 17.882812 0.609375 13.21875 -0.609375 C 8.550781 -1.835938 4.757812 -3.472656 1.84375 -5.515625 L 7.53125 -18.28125 C 10.269531 -16.476562 13.445312 -15.019531 17.0625 -13.90625 C 20.675781 -12.800781 24.234375 -12.25 27.734375 -12.25 C 34.390625 -12.25 37.71875 -13.910156 37.71875 -17.234375 C 37.71875 -18.984375 36.769531 -20.28125 34.875 -21.125 C 32.976562 -21.976562 29.925781 -22.867188 25.71875 -23.796875 C 21.113281 -24.785156 17.265625 -25.847656 14.171875 -26.984375 C 11.078125 -28.128906 8.421875 -29.953125 6.203125 -32.453125 C 3.992188 -34.960938 2.890625 -38.347656 2.890625 -42.609375 C 2.890625 -46.347656 3.910156 -49.71875 5.953125 -52.71875 C 7.992188 -55.71875 11.039062 -58.09375 15.09375 -59.84375 C 19.144531 -61.59375 24.117188 -62.46875 30.015625 -62.46875 C 34.035156 -62.46875 38 -62.015625 41.90625 -61.109375 C 45.820312 -60.210938 49.265625 -58.890625 52.234375 -57.140625 L 46.90625 -44.28125 C 41.070312 -47.425781 35.410156 -49 29.921875 -49 C 26.484375 -49 23.972656 -48.488281 22.390625 -47.46875 C 20.816406 -46.445312 20.03125 -45.117188 20.03125 -43.484375 C 20.03125 -41.847656 20.960938 -40.625 22.828125 -39.8125 C 24.703125 -39 27.707031 -38.15625 31.84375 -37.28125 C 36.507812 -36.28125 40.375 -35.210938 43.4375 -34.078125 C 46.5 -32.941406 49.15625 -31.132812 51.40625 -28.65625 C 53.65625 -26.175781 54.78125 -22.804688 54.78125 -18.546875 C 54.78125 -14.867188 53.757812 -11.539062 51.71875 -8.5625 C 49.675781 -5.59375 46.613281 -3.21875 42.53125 -1.4375 C 38.445312 0.332031 33.488281 1.21875 27.65625 1.21875 Z M 27.65625 1.21875 "/></g></g></g></g></g></g></svg>